<svg width="70" height="70" viewBox="0 0 70 70" fill="none" xmlns="http://www.w3.org/2000/svg">
<path d="M38.1937 13.7867C38.1091 13.59 37.9687 13.4225 37.7898 13.3049C37.6109 13.1873 37.4015 13.1247 37.1874 13.125H32.8124C32.5983 13.1247 32.3889 13.1873 32.21 13.3049C32.0311 13.4225 31.8907 13.59 31.8062 13.7867L21.9624 36.7555C21.9022 36.8935 21.8711 37.0424 21.8711 37.193C21.8711 37.3435 21.9022 37.4925 21.9624 37.6305L26.1733 47.0859L24.1171 53.2492C24.0625 53.4137 24.0478 53.5887 24.0741 53.76C24.1005 53.9313 24.1671 54.0938 24.2686 54.2343C24.37 54.3747 24.5034 54.489 24.6577 54.5678C24.8121 54.6466 24.9829 54.6877 25.1562 54.6875H44.8437C45.0169 54.6877 45.1878 54.6466 45.3421 54.5678C45.4964 54.489 45.6298 54.3747 45.7312 54.2343C45.8327 54.0938 45.8994 53.9313 45.9257 53.76C45.952 53.5887 45.9373 53.4137 45.8827 53.2492L43.8265 47.0859L48.0319 37.6305C48.0922 37.4925 48.1232 37.3435 48.1232 37.193C48.1232 37.0424 48.0922 36.8935 48.0319 36.7555L38.1937 13.7867ZM34.9999 33.3594C35.6489 33.3594 36.2833 33.5518 36.8229 33.9124C37.3625 34.2729 37.783 34.7854 38.0314 35.3849C38.2797 35.9845 38.3447 36.6443 38.2181 37.2808C38.0915 37.9173 37.779 38.5019 37.3201 38.9608C36.8612 39.4197 36.2765 39.7322 35.64 39.8588C35.0035 39.9854 34.3438 39.9205 33.7442 39.6721C33.1447 39.4238 32.6322 39.0032 32.2716 38.4636C31.9111 37.924 31.7187 37.2896 31.7187 36.6406C31.7187 35.7704 32.0644 34.9358 32.6797 34.3204C33.2951 33.7051 34.1297 33.3594 34.9999 33.3594ZM26.671 52.5L28.1312 48.125H41.8687L43.3288 52.5H26.671ZM41.9452 45.9375H28.0546L24.1608 37.1875L33.5343 15.3125H33.9062V31.2813C32.5783 31.5523 31.3984 32.3067 30.5952 33.3983C29.7919 34.4899 29.4226 35.8408 29.5588 37.1892C29.6951 38.5375 30.3271 39.7873 31.3324 40.6962C32.3377 41.605 33.6447 42.1083 34.9999 42.1083C36.3551 42.1083 37.6621 41.605 38.6674 40.6962C39.6727 39.7873 40.3047 38.5375 40.441 37.1892C40.5772 35.8408 40.2079 34.4899 39.4047 33.3983C38.6014 32.3067 37.4215 31.5523 36.0937 31.2813V15.3125H36.4655L45.839 37.1875L41.9452 45.9375Z" fill="#41C1BA"/>
<path d="M68.3594 31.172H65.8602C65.0855 25.7265 62.8855 20.5824 59.4829 16.2607C56.0803 11.9391 51.5961 8.59343 46.4844 6.56261H54.8898C55.1479 7.29238 55.6555 7.90744 56.3232 8.29908C56.9908 8.69073 57.7754 8.83375 58.5383 8.70286C59.3012 8.57197 59.9932 8.1756 60.4921 7.5838C60.9911 6.99201 61.2647 6.24289 61.2647 5.46886C61.2647 4.69483 60.9911 3.94571 60.4921 3.35392C59.9932 2.76213 59.3012 2.36576 58.5383 2.23487C57.7754 2.10398 56.9908 2.24699 56.3232 2.63864C55.6555 3.03029 55.1479 3.64535 54.8898 4.37511H40.3594C40.1083 3.13886 39.4376 2.0274 38.4609 1.22907C37.4842 0.430742 36.2615 -0.00537109 35 -0.00537109C33.7385 -0.00537109 32.5158 0.430742 31.5391 1.22907C30.5624 2.0274 29.8917 3.13886 29.6406 4.37511H15.1211C14.8631 3.64535 14.3554 3.03029 13.6878 2.63864C13.0201 2.24699 12.2355 2.10398 11.4726 2.23487C10.7098 2.36576 10.0177 2.76213 9.51879 3.35392C9.01989 3.94571 8.74625 4.69483 8.74625 5.46886C8.74625 6.24289 9.01989 6.99201 9.51879 7.5838C10.0177 8.1756 10.7098 8.57197 11.4726 8.70286C12.2355 8.83375 13.0201 8.69073 13.6878 8.29908C14.3554 7.90744 14.8631 7.29238 15.1211 6.56261H23.5156C18.4039 8.59343 13.9197 11.9391 10.5171 16.2607C7.11453 20.5824 4.9145 25.7265 4.13984 31.172H1.64062C1.35054 31.172 1.07234 31.2872 0.867227 31.4923C0.662109 31.6975 0.546875 31.9757 0.546875 32.2657V38.8282C0.546875 39.1183 0.662109 39.3965 0.867227 39.6016C1.07234 39.8068 1.35054 39.922 1.64062 39.922H4.13984C5.06369 46.6203 8.15134 52.8331 12.9326 57.6144C17.7138 62.3956 23.9267 65.4833 30.625 66.4071V68.9064C30.625 69.1964 30.7402 69.4746 30.9454 69.6798C31.1505 69.8849 31.4287 70.0001 31.7188 70.0001H38.2812C38.5713 70.0001 38.8495 69.8849 39.0546 69.6798C39.2598 69.4746 39.375 69.1964 39.375 68.9064V66.4071C46.0733 65.4833 52.2862 62.3956 57.0674 57.6144C61.8487 52.8331 64.9363 46.6203 65.8602 39.922H68.3594C68.6495 39.922 68.9277 39.8068 69.1328 39.6016C69.3379 39.3965 69.4531 39.1183 69.4531 38.8282V32.2657C69.4531 31.9757 69.3379 31.6975 69.1328 31.4923C68.9277 31.2872 68.6495 31.172 68.3594 31.172ZM57.9688 4.37511C58.1851 4.37511 58.3965 4.43926 58.5764 4.55944C58.7563 4.67962 58.8965 4.85044 58.9792 5.0503C59.062 5.25016 59.0837 5.47007 59.0415 5.68224C58.9993 5.89441 58.8951 6.0893 58.7421 6.24226C58.5892 6.39522 58.3943 6.49939 58.1821 6.5416C57.97 6.5838 57.75 6.56214 57.5502 6.47935C57.3503 6.39657 57.1795 6.25638 57.0593 6.07652C56.9391 5.89665 56.875 5.68518 56.875 5.46886C56.875 5.17878 56.9902 4.90058 57.1954 4.69546C57.4005 4.49035 57.6787 4.37511 57.9688 4.37511ZM35 2.18761C35.649 2.18761 36.2834 2.38005 36.823 2.7406C37.3626 3.10115 37.7831 3.61361 38.0315 4.21318C38.2798 4.81275 38.3448 5.4725 38.2182 6.109C38.0916 6.7455 37.7791 7.33016 37.3202 7.78906C36.8613 8.24795 36.2766 8.56046 35.6401 8.68706C35.0036 8.81367 34.3439 8.74869 33.7443 8.50034C33.1447 8.25199 32.6323 7.83143 32.2717 7.29183C31.9112 6.75223 31.7188 6.11783 31.7188 5.46886C31.7188 4.59862 32.0645 3.76402 32.6798 3.14867C33.2952 2.53331 34.1298 2.18761 35 2.18761ZM12.0312 6.56261C11.8149 6.56261 11.6035 6.49846 11.4236 6.37828C11.2437 6.2581 11.1035 6.08728 11.0208 5.88742C10.938 5.68756 10.9163 5.46765 10.9585 5.25548C11.0007 5.04331 11.1049 4.84843 11.2579 4.69546C11.4108 4.5425 11.6057 4.43833 11.8179 4.39613C12.03 4.35392 12.25 4.37558 12.4498 4.45837C12.6497 4.54115 12.8205 4.68134 12.9407 4.86121C13.0609 5.04107 13.125 5.25254 13.125 5.46886C13.125 5.75894 13.0098 6.03714 12.8046 6.24226C12.5995 6.44738 12.3213 6.56261 12.0312 6.56261ZM2.73438 33.3595H7.10938V37.7345H2.73438V33.3595ZM37.1875 67.8126H32.8125V63.4376H37.1875V67.8126ZM39.375 64.1978V62.3439C39.375 62.0538 39.2598 61.7756 39.0546 61.5705C38.8495 61.3653 38.5713 61.2501 38.2812 61.2501H31.7188C31.4287 61.2501 31.1505 61.3653 30.9454 61.5705C30.7402 61.7756 30.625 62.0538 30.625 62.3439V64.1978C24.5109 63.2883 18.8509 60.4379 14.48 56.067C10.109 51.6961 7.25864 46.0361 6.34922 39.922H8.20312C8.49321 39.922 8.7714 39.8068 8.97652 39.6016C9.18164 39.3965 9.29688 39.1183 9.29688 38.8282V32.2657C9.29688 31.9757 9.18164 31.6975 8.97652 31.4923C8.7714 31.2872 8.49321 31.172 8.20312 31.172H6.34922C7.26229 25.2162 10.0071 19.6925 14.2024 15.3678C18.3978 11.043 23.8357 8.13185 29.7609 7.03839C30.0984 8.16565 30.7904 9.154 31.7342 9.85668C32.678 10.5594 33.8233 10.9389 35 10.9389C36.1767 10.9389 37.322 10.5594 38.2658 9.85668C39.2096 9.154 39.9016 8.16565 40.2391 7.03839C46.1643 8.13185 51.6022 11.043 55.7976 15.3678C59.9929 19.6925 62.7377 25.2162 63.6508 31.172H61.7969C61.5068 31.172 61.2286 31.2872 61.0235 31.4923C60.8184 31.6975 60.7031 31.9757 60.7031 32.2657V38.8282C60.7031 39.1183 60.8184 39.3965 61.0235 39.6016C61.2286 39.8068 61.5068 39.922 61.7969 39.922H63.6508C62.7422 46.0365 59.892 51.6969 55.521 56.068C51.1499 60.439 45.4895 63.2892 39.375 64.1978ZM67.2656 37.7345H62.8906V33.3595H67.2656V37.7345Z" fill="#41C1BA"/>
</svg>
